<?xml version="1.0" encoding="UTF-8" standalone="no"?>
<!-- Created with Inkscape (http://www.inkscape.org/) -->

<svg
   width="1752"
   height="544"
   viewBox="0 0 463.55001 143.93333"
   version="1.1"
   id="svg5"
   inkscape:version="1.2 (dc2aedaf03, 2022-05-15)"
   sodipodi:docname="fox43.svg"
   xmlns:inkscape="http://www.inkscape.org/namespaces/inkscape"
   xmlns:sodipodi="http://sodipodi.sourceforge.net/DTD/sodipodi-0.dtd"
   xmlns="http://www.w3.org/2000/svg"
   xmlns:svg="http://www.w3.org/2000/svg">
  <sodipodi:namedview
     id="namedview7"
     pagecolor="#000000"
     bordercolor="#000000"
     borderopacity="0.25"
     inkscape:showpageshadow="2"
     inkscape:pageopacity="0"
     inkscape:pagecheckerboard="0"
     inkscape:deskcolor="#d1d1d1"
     inkscape:document-units="px"
     showgrid="true"
     inkscape:zoom="0.6614246"
     inkscape:cx="1842.9916"
     inkscape:cy="488.33987"
     inkscape:window-width="1366"
     inkscape:window-height="705"
     inkscape:window-x="-8"
     inkscape:window-y="-8"
     inkscape:window-maximized="1"
     inkscape:current-layer="layer1">
    <inkscape:grid
       type="xygrid"
       id="grid4796"
       originx="0"
       originy="0"
       dotted="false"
       enabled="true"
       visible="true"
       empspacing="0" />
  </sodipodi:namedview>
  <defs
     id="defs2" />
  <g
     inkscape:label="Layer 1"
     inkscape:groupmode="layer"
     id="layer1">
    <path
       style="fill:#ffffff;stroke-width:6.83856;stroke-linejoin:round"
       d="m 18.280631,77.64207 c 0,0 2.158496,-17.302096 4.413955,-36.790513 2.255457,-19.488418 4.255597,-40.86159658 4.444756,-40.86159658 0.189158,0 2.188838,21.50888058 4.443736,41.16315758 2.254896,19.654277 4.394996,36.790514 4.394996,36.790514 l 147.457046,0.968955 c 0,0 3.6728,47.312363 51.59094,47.551393 46.45249,0.23172 49.75948,-48.465876 49.75948,-48.465876 l 145.41531,-1.56228 c 0,0 2.17821,-18.101235 4.43296,-37.092076 2.25478,-18.990841 3.64422,-43.5756499 3.8248,-38.75066431 0.0102,0.26990203 9.09541,77.95367131 9.09541,77.95367131 l 8.41168,67.399025 -223.15557,-0.60313 H 9.0514285 Z"
       id="path7291"
       sodipodi:nodetypes="csssccsccssccccc" />
    <path
       style="fill:#000000;fill-opacity:1;stroke-width:1.64929;stroke-linejoin:round"
       d="m 35.588848,74.174111 8.443725,70.565409 h 4.824985 l -9.64997,-70.565409 z"
       id="path7344" />
    <path
       style="fill:#000000;fill-opacity:1;stroke-width:1.64929;stroke-linejoin:round"
       d="m 430.07326,75.939622 -10.94294,70.221268 -4.82196,-0.17123 12.14844,-70.178448 z"
       id="path7344-4" />
    <rect
       style="fill:#000000;fill-opacity:1;stroke-width:3.60645;stroke-linejoin:round"
       id="rect7528-8"
       width="335.93961"
       height="44.027992"
       x="64.84034"
       y="129.96301"
       ry="4.8249855" />
    <rect
       style="fill:#000000;fill-opacity:1;stroke:#ffffff;stroke-width:6.24953;stroke-linejoin:round;stroke-dasharray:none;stroke-opacity:1"
       id="rect7584-6"
       width="322.12753"
       height="30.943174"
       x="72.306145"
       y="136.50543" />
    <path
       style="fill:none;fill-opacity:1;stroke:#ffffff;stroke-width:5.46012;stroke-linejoin:round;stroke-dasharray:none;stroke-opacity:1"
       id="path9047"
       sodipodi:type="arc"
       sodipodi:cx="234.31793"
       sodipodi:cy="78.009521"
       sodipodi:rx="44.751461"
       sodipodi:ry="44.209892"
       sodipodi:start="0"
       sodipodi:end="3.1533916"
       sodipodi:arc-type="arc"
       d="m 279.06939,78.009521 a 44.751461,44.209892 0 0 1 -22.52833,38.373529 44.751461,44.209892 0 0 1 -44.90302,-0.2617 44.751461,44.209892 0 0 1 -22.06845,-38.633447"
       sodipodi:open="true" />
    <rect
       style="fill:#ffffff;fill-opacity:1;stroke:none;stroke-width:1.41212;stroke-linejoin:round;stroke-dasharray:none;stroke-opacity:1"
       id="rect9049"
       width="8.4437246"
       height="9.6499691"
       x="231.00076"
       y="112.774" />
    <rect
       style="fill:#ffffff;fill-opacity:1;stroke:none;stroke-width:1.41212;stroke-linejoin:round;stroke-dasharray:none;stroke-opacity:1"
       id="rect9049-2"
       width="8.4437246"
       height="9.6499691"
       x="-85.633453"
       y="189.38527"
       transform="rotate(-90)" />
    <rect
       style="fill:#ffffff;fill-opacity:1;stroke:none;stroke-width:1.41212;stroke-linejoin:round;stroke-dasharray:none;stroke-opacity:1"
       id="rect9049-2-3"
       width="8.4437246"
       height="9.6499691"
       x="-86.236572"
       y="268.99753"
       transform="rotate(-90)" />
    <rect
       style="fill:#ffffff;fill-opacity:1;stroke:none;stroke-width:1.41212;stroke-linejoin:round;stroke-dasharray:none;stroke-opacity:1"
       id="rect9049-0"
       width="8.4437246"
       height="9.6499691"
       x="108.28377"
       y="255.72783"
       transform="rotate(-44.552391)" />
    <rect
       style="fill:#ffffff;fill-opacity:1;stroke:none;stroke-width:1.41212;stroke-linejoin:round;stroke-dasharray:none;stroke-opacity:1"
       id="rect9049-0-4"
       width="8.4437246"
       height="9.6499691"
       x="-224.38779"
       y="-72.632431"
       transform="matrix(-0.71260924,-0.70156116,-0.70156116,0.71260924,0,0)" />
  </g>
</svg>
